<?xml version="1.0" encoding="utf-8" ?>
<svg baseProfile="full" height="200mm" version="1.1" viewBox="0,0,200,200" width="200mm" xmlns="http://www.w3.org/2000/svg" xmlns:ev="http://www.w3.org/2001/xml-events" xmlns:xlink="http://www.w3.org/1999/xlink"><defs /><rect fill="#1a1a1a" height="200" width="200" x="0" y="0" /><rect fill="#1a1a1a" height="200" width="180" x="10" y="0" /><text alignment-baseline="middle" fill="#e1ed5e" style="dominant-baseline: central; font-size:9.0px; font-family:Arial;" text-anchor="middle" x="100.0" y="100.0">2023</text><line stroke="#e1ed5e" stroke-width="0.3" x1="100.0" x2="100.0" y1="15.0" y2="10.0" /><path d="M 100.0 14.0 a86.0,86.0 0 0,1 42.46469731375804,11.215312516191453" fill="none" id="id1" stroke="none" /><text fill="#e1ed5e" style="font-size:6.75px; font-family:Arial;" text-anchor="middle"><textPath startOffset="22.20632615414155" xlink:href="#id1">January</textPath></text><line stroke="#e1ed5e" stroke-width="0.3" x1="143.23703022742887" x2="145.7803849466894" y1="26.81831364943548" y2="22.513508569990506" /><path d="M 143.74570117128098 25.957352633546492 a86.0,86.0 0 0,1 28.547481713284135,27.462654790039103" fill="none" id="id2" stroke="none" /><text fill="#e1ed5e" style="font-size:6.75px; font-family:Arial;" text-anchor="middle"><textPath startOffset="19.985693538727396" xlink:href="#id2">February</textPath></text><line stroke="#e1ed5e" stroke-width="0.3" x1="172.23445277983987" x2="176.4835382374775" y1="55.19839476539836" y2="52.563006222186495" /><path d="M 173.08426987136738 54.67131705675599 a86.0,86.0 0 0,1 12.851231095245387,41.99856678651699" fill="none" id="id3" stroke="none" /><text fill="#e1ed5e" style="font-size:6.75px; font-family:Arial;" text-anchor="middle"><textPath startOffset="22.20632615414155" xlink:href="#id3">March</textPath></text><line stroke="#e1ed5e" stroke-width="0.3" x1="184.98032266829074" x2="189.97916517819016" y1="98.17113171792111" y2="98.06355123074" /><path d="M 185.9800911702706 98.14961562048488 a86.0,86.0 0 0,1 -9.607161424134198,41.387399972396054" fill="none" id="id4" stroke="none" /><text fill="#e1ed5e" style="font-size:6.75px; font-family:Arial;" text-anchor="middle"><textPath startOffset="21.466115282336823" xlink:href="#id4">April</textPath></text><line stroke="#e1ed5e" stroke-width="0.3" x1="174.80103733775053" x2="179.2010983576182" y1="140.37084112569926" y2="142.7455964860345" /><path d="M 175.68104954172406 140.8457921977663 a86.0,86.0 0 0,1 -30.038265399797805,32.042727171017184" fill="none" id="id5" stroke="none" /><text fill="#e1ed5e" style="font-size:6.75px; font-family:Arial;" text-anchor="middle"><textPath startOffset="22.206326154141568" xlink:href="#id5">May</textPath></text><line stroke="#e1ed5e" stroke-width="0.3" x1="143.8653032363475" x2="146.44561519142675" y1="172.8068346515853" y2="177.08958963109032" /><path d="M 144.38136562736335 173.6633856474863 a86.0,86.0 0 0,1 -40.68145358897372,12.25698825130547" fill="none" id="id6" stroke="none" /><text fill="#e1ed5e" style="font-size:6.75px; font-family:Arial;" text-anchor="middle"><textPath startOffset="21.466115282336833" xlink:href="#id6">June</textPath></text><line stroke="#e1ed5e" stroke-width="0.3" x1="102.19456741930631" x2="102.32365962044197" y1="184.97166512339345" y2="189.96999836594603" /><path d="M 102.22038585953345 185.97133177190398 a86.0,86.0 0 0,1 -42.740103519485714,-10.115201625700543" fill="none" id="id7" stroke="none" /><text fill="#e1ed5e" style="font-size:6.75px; font-family:Arial;" text-anchor="middle"><textPath startOffset="22.20632615414155" xlink:href="#id7">July</textPath></text><line stroke="#e1ed5e" stroke-width="0.3" x1="58.666819895761336" x2="56.23545636021788" y1="174.27360380694188" y2="178.64263932499728" /><path d="M 58.180547188652646 175.14741091055294 a86.0,86.0 0 0,1 -31.652253787137756,-30.449443065178592" fill="none" id="id8" stroke="none" /><text fill="#e1ed5e" style="font-size:6.75px; font-family:Arial;" text-anchor="middle"><textPath startOffset="22.20632615414155" xlink:href="#id8">August</textPath></text><line stroke="#e1ed5e" stroke-width="0.3" x1="26.63291911575756" x2="22.317208475507996" y1="142.92168965132927" y2="145.44649492493687" /><path d="M 25.769776987707644 143.4266507060508 a86.0,86.0 0 0,1 -11.730757126820373,-40.83630448921669" fill="none" id="id9" stroke="none" /><text fill="#e1ed5e" style="font-size:6.75px; font-family:Arial;" text-anchor="middle"><textPath startOffset="21.46611528233685" xlink:href="#id9">September</textPath></text><path d="M 79.67330655649465 105.27499134158121 l -25.757743684371892 6.684406162338359 a47.610949728502874,47.610949728502874 0 0,0 -0.19903346199187177,-0.7950397433160125 l 25.868988460658823 -6.2400385796249545" fill="red" stroke="none" /><path d="M 79.50377843672027 104.57218783832718 l -29.699522632271798 6.625211176809066 a51.42950981731616,51.42950981731616 0 0,0 -0.18530777610752563,-0.8656962378391427 l 29.809164447103765 -6.1130011195537595" fill="red" stroke="none" /><path d="M 79.18660465613746 102.79330883721812 l -45.95982233595534 6.1681419954315935 a67.37187989318943,67.37187989318943 0 0,0 -0.14436347211410205,-1.1507189132365794 l 46.05918731731629 -5.376105327907605" fill="red" stroke="none" /><path d="M 79.1416061653843 102.43462659150553 l -37.76898478960756 4.408459032466088 a59.02539576491662,59.02539576491662 0 0,0 -0.10910619126588678,-1.010187825719878 l 37.83927328237449 -3.757674884861428" fill="red" stroke="none" /><path d="M 79.07016306316243 101.71520430193888 l -34.00959081177374 2.787092734815608 a55.12360111560248,55.12360111560248 0 0,0 -0.069359773347081,-0.9463590007243728 l 34.052527143785156 -2.2012605975944743" fill="red" stroke="none" /><line stroke="#e1ed5e" stroke-width="0.3" x1="15.007084014347285" x2="10.007500721073583" y1="101.09737516637583" y2="101.16192664675087" /><path d="M 14.007167355692545 101.11028546245083 a86.0,86.0 0 0,1 10.666146001902534,-42.60595125391555" fill="none" id="id10" stroke="none" /><text fill="#e1ed5e" style="font-size:6.75px; font-family:Arial;" text-anchor="middle"><textPath startOffset="22.20632615414155" xlink:href="#id10">October</textPath></text><path d="M 79.12142395522702 97.74499172005258 l -33.18751942008505 -3.584446129023424 a54.380528745219024,54.380528745219024 0 0,0 0.10852708396144359,-0.9297937790083686 l 33.12090198312002 4.1551836463566545" fill="red" stroke="none" /><path d="M 79.26566170972629 96.67025291283419 l -26.53277572976529 -4.260923665070742 a47.87273075825347,47.87273075825347 0 0,0 0.13766405211592805,-0.812501028303406 l 26.45549981612914 4.717010481689976" fill="red" stroke="none" /><path d="M 79.62865764111835 94.90015583598534 l -22.254380311958617 -5.571251494294525 a43.941148320909534,43.941148320909534 0 0,0 0.19000083092235576,-0.7321507077606565 l 22.155183149165953 5.953498627604045" fill="red" stroke="none" /><path d="M 79.91906864156998 93.8553929516997 l -43.16766280060248 -13.208965279983442 a66.14337022680436,66.14337022680436 0 0,0 0.3425108951073538,-1.0858531370327074 l 42.93389642172692 13.950068583442565" fill="red" stroke="none" /><path d="M 80.65960295795068 91.81776055985345 l -20.87571569114639 -8.8317785771416 a43.66706461924951,43.66706461924951 0 0,0 0.29882680284219704,-0.6897334613141575 l 20.72059817846151 9.189811183042357" fill="red" stroke="none" /><path d="M 80.803312248108 91.48605970444005 l -41.422864611717046 -18.371492037237658 a66.31407543263933,66.31407543263933 0 0,0 0.47176996296923046,-1.0394825779243615 l 41.10049233178446 19.08179662400409" fill="red" stroke="none" /><path d="M 81.26839172434947 90.50648371742162 l -56.19482482695157 -28.480548847735136 a84.0,84.0 0 0,0 0.6647622673595439,-1.284109110958658 l 55.69625312643191 29.44363068095413" fill="red" stroke="none" /><path d="M 81.6062741919709 89.86733742301443 l -29.1752443419922 -16.07194266152815 a54.30919127403721,54.30919127403721 0 0,0 0.45811705913254736,-0.8149391301216681 l 28.894269641567224 16.571765301584602" fill="red" stroke="none" /><line stroke="#e1ed5e" stroke-width="0.3" x1="26.266209847984243" x2="21.928928074336255" y1="57.711370442889674" y2="55.22380399835377" /><path d="M 25.398753493254645 57.213857153982495 a86.0,86.0 0 0,1 29.58750427330803,-30.492523968695096" fill="none" id="id11" stroke="none" /><text fill="#e1ed5e" style="font-size:6.75px; font-family:Arial;" text-anchor="middle"><textPath startOffset="21.46611528233685" xlink:href="#id11">November</textPath></text><path d="M 81.96595687620814 89.24020034530311 l -28.5334476046563 -17.024145810035055 a54.22618203719772,54.22618203719772 0 0,0 0.48515442495453215,-0.7974663118583958 l 28.236177381415548 17.512779895100525" fill="red" stroke="none" /><path d="M 82.54541684631803 88.32363383020206 l -34.13517805403726 -22.83496745358322 a62.06879739397091,62.06879739397091 0 0,0 0.6016994568941106,-0.8829197071788122 l 33.73705413147441 23.419165184032448" fill="red" stroke="none" /><path d="M 85.31137513191541 84.99185889309783 l -22.112448778032086 -22.59345272006582 a52.613675787148544,52.613675787148544 0 0,0 0.652702102747395,-0.6278989057077891 l 21.72026343167226 22.970734712535922" fill="red" stroke="none" /><path d="M 86.37877921826538 84.01681056812374 l -36.9672902514654 -43.37755127386464 a77.99291625327524,77.99291625327524 0 0,0 1.0292928052464063,-0.8620031235174526 l 36.21513990925988 44.00745555477591" fill="red" stroke="none" /><path d="M 86.93701828274178 83.55741782278169 l -14.017923095594282 -17.64458202898051 a43.53516014789816,43.53516014789816 0 0,0 0.5907668260986543,-0.46110287835811964 l 13.712123714336203 17.88326329656185" fill="red" stroke="none" /><path d="M 87.22198572758235 83.33499621200491 l -15.161809066411598 -19.773933581371796 a45.917642413495386,45.917642413495386 0 0,0 0.6313759932020799,-0.4755393082827433 l 14.819186919451127 20.031989479160394" fill="red" stroke="none" /><path d="M 87.80319425747018 82.90503203632743 l -14.942696493428366 -20.94359156310189 a46.72777110549511,46.72777110549511 0 0,0 0.6587922829047382,-0.46152609481603657 l 14.579973070939968 21.197702500681867" fill="red" stroke="none" /><path d="M 88.39885842347998 82.49532879139004 l -18.86278308296222 -28.461579730641418 a55.144781539768914,55.144781539768914 0 0,0 0.7957470077367577,-0.5175759889750413 l 18.370069049441174 28.782054643775993" fill="red" stroke="none" /><path d="M 89.00827224532344 82.1063720568725 l -17.78501490776759 -28.952540203442634 a54.97876306608993,54.97876306608993 0 0,0 0.810643361794929,-0.4884035551309674 l 17.28400947975501 29.25439036803222" fill="red" stroke="none" /><line stroke="#e1ed5e" stroke-width="0.3" x1="56.762969772571076" x2="54.21961505331055" y1="26.818313649435495" y2="22.513508569990535" /><path d="M 56.25429882871897 25.957352633546506 a86.0,86.0 0 0,1 42.265352541879196,-11.944610805530505" fill="none" id="id12" stroke="none" /><text fill="#e1ed5e" style="font-size:6.75px; font-family:Arial;" text-anchor="middle"><textPath startOffset="22.20632615414155" xlink:href="#id12">December</textPath></text><path d="M 89.94658935756843 81.56283822128135 l -24.662051736223884 -45.228256740730636 a72.5151628517821,72.5151628517821 0 0,0 1.1010389941474925,-0.5881368992785027 l 23.879867695548086 45.646072366510886" fill="red" stroke="none" /><path d="M 90.91171255644093 81.06846463323043 l -23.096952616007034 -48.112560042808475 a74.3693512609899,74.3693512609899 0 0,0 1.1588224830528016,-0.5440826939063599 l 22.265351921654624 48.50300771935484" fill="red" stroke="none" /><path d="M 92.91201910852362 80.23233633223022 l -18.697906088301348 -52.14657382747229 a76.39744447202375,76.39744447202375 0 0,0 1.241705840089409,-0.43320678607390783 l 17.797518244148655 52.460701466718405" fill="red" stroke="none" /><path d="M 93.59665428221793 80.00007090966166 l -11.680618961936787 -36.48273281907276 a59.30700527686556,59.30700527686556 0 0,0 0.9749355105855233,-0.3029172088818078 l 11.050898078640534 36.67839016283709" fill="red" stroke="none" /><path d="M 94.63758080256005 79.69619591428918 l -10.879651657937533 -41.19377983149858 a63.606270864792215,63.606270864792215 0 0,0 1.0609862527538576,-0.2704690196713179 l 10.168956516498676 41.374951847338764" fill="red" stroke="none" /></svg>