<?xml version="1.0" encoding="utf-8" ?>
<svg baseProfile="full" height="200mm" version="1.1" viewBox="0,0,200,200" width="200mm" xmlns="http://www.w3.org/2000/svg" xmlns:ev="http://www.w3.org/2001/xml-events" xmlns:xlink="http://www.w3.org/1999/xlink"><defs /><rect fill="#1a1a1a" height="200" width="200" x="0" y="0" /><rect fill="#1a1a1a" height="200" width="180" x="10" y="0" /><text alignment-baseline="middle" fill="#e1ed5e" style="dominant-baseline: central; font-size:9.0px; font-family:Arial;" text-anchor="middle" x="100.0" y="100.0">2025</text><line stroke="#e1ed5e" stroke-width="0.3" x1="100.0" x2="100.0" y1="15.0" y2="10.0" /><path d="M 100.0 14.0 a86.0,86.0 0 0,1 42.46469731375804,11.215312516191453" fill="none" id="id25" stroke="none" /><text fill="#e1ed5e" style="font-size:6.75px; font-family:Arial;" text-anchor="middle"><textPath startOffset="22.20632615414155" xlink:href="#id25">January</textPath></text><line stroke="#e1ed5e" stroke-width="0.3" x1="143.23703022742887" x2="145.7803849466894" y1="26.81831364943548" y2="22.513508569990506" /><path d="M 143.74570117128098 25.957352633546492 a86.0,86.0 0 0,1 28.547481713284135,27.462654790039103" fill="none" id="id26" stroke="none" /><text fill="#e1ed5e" style="font-size:6.75px; font-family:Arial;" text-anchor="middle"><textPath startOffset="19.985693538727396" xlink:href="#id26">February</textPath></text><path d="M 116.82858285166822 87.43820079747576 l 10.766537169010954 -8.036747907755196 a34.43531315394256,34.43531315394256 0 0,0 0.3504816128951828,0.4780565261098706 l -10.903281394419764 7.8502289379738315" fill="#ff9b0e" stroke="none" /><line stroke="#e1ed5e" stroke-width="0.3" x1="172.23445277983987" x2="176.4835382374775" y1="55.19839476539836" y2="52.563006222186495" /><path d="M 173.08426987136738 54.67131705675599 a86.0,86.0 0 0,1 12.851231095245387,41.99856678651699" fill="none" id="id27" stroke="none" /><text fill="#e1ed5e" style="font-size:6.75px; font-family:Arial;" text-anchor="middle"><textPath startOffset="22.20632615414155" xlink:href="#id27">March</textPath></text><path d="M 118.73160827565052 90.50648371742162 l 6.558300829417627 -3.323864923603917 a28.35250894589761,28.35250894589761 0 0,0 0.21688317475273203,0.43722324591079464 l -6.614544017123767 3.2104820891941723" fill="#ff4706" stroke="none" /><path d="M 119.196687751892 91.48605970444005 l 10.553156149312693 -4.680439800148029 a32.54450611479703,32.54450611479703 0 0,0 0.22271180344181035,0.5140495484421291 l -10.632158662597183 4.498091107119297" fill="#ff820b" stroke="none" /><line stroke="#e1ed5e" stroke-width="0.3" x1="184.98032266829074" x2="189.97916517819016" y1="98.17113171792111" y2="98.06355123074" /><path d="M 185.9800911702706 98.14961562048488 a86.0,86.0 0 0,1 -9.607161424134198,41.387399972396054" fill="none" id="id28" stroke="none" /><text fill="#e1ed5e" style="font-size:6.75px; font-family:Arial;" text-anchor="middle"><textPath startOffset="21.466115282336823" xlink:href="#id28">April</textPath></text><line stroke="#e1ed5e" stroke-width="0.3" x1="174.80103733775053" x2="179.2010983576182" y1="140.37084112569926" y2="142.7455964860345" /><path d="M 175.68104954172406 140.8457921977663 a86.0,86.0 0 0,1 -30.038265399797805,32.042727171017184" fill="none" id="id29" stroke="none" /><text fill="#e1ed5e" style="font-size:6.75px; font-family:Arial;" text-anchor="middle"><textPath startOffset="22.206326154141568" xlink:href="#id29">May</textPath></text><path d="M 117.35343817320211 111.8261652097733 l 9.518077874891423 6.486458781509782 a32.51815757648431,32.51815757648431 0 0,0 -0.3192030239797707,0.45983576332935183 l -9.405013943749516 -6.649335807026154" fill="#ff810b" stroke="none" /><path d="M 116.27256486870786 113.27417163493432 l 10.645713047547533 8.684127137274508 a34.73845953617331,34.73845953617331 0 0,0 -0.3819642506875572,0.46010054596168554 l -10.494652796966433 -8.866088940349965" fill="#ff9f0e" stroke="none" /><path d="M 115.56566222782051 114.09645910891815 l 11.269286972694053 10.205607745574778 a36.203659372975565,36.203659372975565 0 0,0 -0.4222960193861768,0.4583189245669261 l -11.091944545312153 -10.398077924943038" fill="#ffb310" stroke="none" /><path d="M 114.81725581225074 114.88116024355365 l 10.095891858214973 10.139433809293495 a35.30856912433299,35.30856912433299 0 0,0 -0.4343795483244757,0.42513181281137374 l -9.919862357514704 -10.31171572502744" fill="#ffa70f" stroke="none" /><path d="M 114.0293411484842 115.62618273729858 l 9.93126020996096 11.061651806027925 a35.86573476272716,35.86573476272716 0 0,0 -0.46293722266958226,0.4084882742179755 l -9.73938063438479 -11.23096322201819" fill="#ffae10" stroke="none" /><path d="M 112.92097659922987 116.55440617244103 l 9.636655160044747 12.346520592927844 a36.662110120453384,36.662110120453384 0 0,0 -0.5008241022079054,0.3840105653377292 l -9.422702329343347 -12.510570500092944" fill="#ffb911" stroke="none" /><path d="M 111.1453310114006 117.79835938074945 l 7.588621357686317 12.118528376624562 a35.29845810307488,35.29845810307488 0 0,0 -0.5177456812411907,0.3180416845846218 l -7.378896476512817 -12.247358528037562" fill="#ffa70f" stroke="none" /><line stroke="#e1ed5e" stroke-width="0.3" x1="143.8653032363475" x2="146.44561519142675" y1="172.8068346515853" y2="177.08958963109032" /><path d="M 144.38136562736335 173.6633856474863 a86.0,86.0 0 0,1 -40.68145358897372,12.25698825130547" fill="none" id="id30" stroke="none" /><text fill="#e1ed5e" style="font-size:6.75px; font-family:Arial;" text-anchor="middle"><textPath startOffset="21.466115282336833" xlink:href="#id30">June</textPath></text><path d="M 103.06178313531738 120.77559828337769 l 2.1798503636039026 14.791281247100821 a35.9510450650963,35.9510450650963 0 0,0 -0.6130019692745133,0.08495648725478237 l -1.924919803142559 -14.826612299848206" fill="#ffb010" stroke="none" /><path d="M 102.70371172650421 120.8252237178851 l 1.994432838809942 15.362033478404951 a36.490959781116146,36.490959781116146 0 0,0 -0.6236002272370281,0.07550930302823268 l -1.7297051885215335 -15.394088310158535" fill="#ffb711" stroke="none" /><line stroke="#e1ed5e" stroke-width="0.3" x1="102.19456741930631" x2="102.32365962044197" y1="184.97166512339345" y2="189.96999836594603" /><path d="M 102.22038585953345 185.97133177190398 a86.0,86.0 0 0,1 -42.740103519485714,-10.115201625700543" fill="none" id="id31" stroke="none" /><text fill="#e1ed5e" style="font-size:6.75px; font-family:Arial;" text-anchor="middle"><textPath startOffset="22.20632615414155" xlink:href="#id31">July</textPath></text><path d="M 100.18074693466247 120.99922214144158 l 0.10422942484660322 12.10939953209102 a33.10984809156622,33.10984809156622 0 0,0 -0.5699527190181091,0.0 l 0.10422942484659489 -12.10939953209102" fill="#ff890c" stroke="none" /><path d="M 99.81925306533755 120.99922214144158 l -0.02180594108452208 2.5334194557281258 a23.533513299299685,23.533513299299685 0 0,0 -0.4050457307054239,-0.006973229581242409 l 0.06541136168261388 -2.5326687488677235" fill="#ff0000" stroke="none" /><path d="M 96.22490169976321 120.6578951692458 l -2.6856943838242673 14.696516123618252 a35.939897606579386,35.939897606579386 0 0,0 -0.6076108371101384,-0.11645006305813553 l 2.9382728355061007 -14.648108862211648" fill="#ffaf10" stroke="none" /><path d="M 94.46302465271185 120.25689768951611 l -4.2873456624483985 15.685156063832515 a37.26054899368705,37.26054899368705 0 0,0 -0.6172277930578437,-0.17443473963992942 l 4.556704623610856 -15.609032530854066" fill="#ffc111" stroke="none" /><path d="M 94.11515582081647 120.15858648285463 l -3.6379477589275955 12.461822655875954 a33.9819754969415,33.9819754969415 0 0,0 -0.5600958160690389,-0.16875227484556296 l 3.8519185494368804 -12.397355011924665" fill="#ff950d" stroke="none" /><path d="M 93.42475214034765 119.94407469862007 l -3.880870067782073 11.771474502495291 a33.394707114163836,33.394707114163836 0 0,0 -0.544381857374992,-0.1846838827452852 l 4.082921658094291 -11.702927632851884" fill="#ff8d0d" stroke="none" /><path d="M 92.40401165467489 119.57807347666478 l -4.513418879225683 11.632988681825625 a33.47787544619812,33.47787544619812 0 0,0 -0.5354529895844631,-0.21306779504595433 l 4.7129929448520045 -11.553574042373604" fill="#ff8e0d" stroke="none" /><path d="M 91.7346041902142 119.30500536409082 l -5.023977141659329 11.734211875730672 a33.76448489616617,33.76448489616617 0 0,0 -0.5323201371405482,-0.23335350467560942 l 5.22521795345762 -11.64599381776061" fill="#ff920d" stroke="none" /><path d="M 90.10565033884886 118.52300852407294 l -5.43560338186145 10.175881308401777 a32.536652223569206,32.536652223569206 0 0,0 -0.49173291399639707,-0.2681319917966692 l 5.609959107726488 -10.080808664845343" fill="#ff810b" stroke="none" /><line stroke="#e1ed5e" stroke-width="0.3" x1="58.666819895761336" x2="56.23545636021788" y1="174.27360380694188" y2="178.64263932499728" /><path d="M 58.180547188652646 175.14741091055294 a86.0,86.0 0 0,1 -31.652253787137756,-30.449443065178592" fill="none" id="id32" stroke="none" /><text fill="#e1ed5e" style="font-size:6.75px; font-family:Arial;" text-anchor="middle"><textPath startOffset="22.20632615414155" xlink:href="#id32">August</textPath></text><path d="M 89.1626897886671 117.98757091392108 l -15.920342663035518 26.424295977595115 a51.84964713606978,51.84964713606978 0 0,0 -0.7605128473371281,-0.46716910614396934 l 16.372834710304957 -26.146338404622767" fill="#8cff24" stroke="none" /><path d="M 87.36589467227662 116.77436683061367 l -10.521417380729252 13.969340142753893 a38.488358634344934,38.488358634344934 0 0,0 -0.5257716371253914,-0.40313927129499344 l 10.76031774634813 -13.786161529631533" fill="#ffd113" stroke="none" /><path d="M 85.18274418774928 114.88116024355367 l -9.085537252237422 9.124721707074587 a33.876627407568805,33.876627407568805 0 0,0 -0.4096803391263221,-0.4150040205939156 l 9.241258216419277 -8.966977192500007" fill="#ff940d" stroke="none" /><path d="M 84.43433777217949 114.09645910891817 l -8.585364120018863 7.775013518969614 a32.58271610173829,32.58271610173829 0 0,0 -0.3729032128320663,-0.4189607127366474 l 8.717926182499268 -7.626078636492102" fill="#ff820c" stroke="none" /><path d="M 83.95833913139862 113.55231037782056 l -7.807423068267051 6.595864451866839 a31.220630256217525,31.220630256217525 0 0,0 -0.3432842100955006,-0.4135079453133531 l 7.919803278256087 -6.460495249439725" fill="#ff6f0a" stroke="none" /><path d="M 83.72743513129214 113.27417163493432 l -7.311521181143012 5.964295601462662 a30.435632676399063,30.435632676399063 0 0,0 -0.32766435159102864,-0.40881165930705693 l 7.413103444788901 -5.837556108577345" fill="#ff6409" stroke="none" /><path d="M 83.28015986056508 112.70617746262583 l -10.333074069440404 7.8525794365163355 a33.978267354748894,33.978267354748894 0 0,0 -0.34987702346126875,-0.4687174490123852 l 10.466712359596757 -7.673549107994642" fill="#ff950d" stroke="none" /><path d="M 83.06392112726016 112.41649034213515 l -9.596315947134523 7.035428045240164 a32.899013721186314,32.899013721186314 0 0,0 -0.3309017385155577,-0.4595935733141887 l 9.715997478025688 -6.869200866474837" fill="#ff860c" stroke="none" /><path d="M 82.05923443525364 110.91462005526583 l -8.401280257881854 5.111085235558202 a30.833854903170803,30.833854903170803 0 0,0 -0.2719533144768131,-0.4558093977885624 l 8.4880144480569 -4.965713743883529" fill="#ff6a09" stroke="none" /><line stroke="#e1ed5e" stroke-width="0.3" x1="26.63291911575756" x2="22.317208475507996" y1="142.92168965132927" y2="145.44649492493687" /><path d="M 25.769776987707644 143.4266507060508 a86.0,86.0 0 0,1 -11.730757126820373,-40.83630448921669" fill="none" id="id33" stroke="none" /><text fill="#e1ed5e" style="font-size:6.75px; font-family:Arial;" text-anchor="middle"><textPath startOffset="21.46611528233685" xlink:href="#id33">September</textPath></text><path d="M 80.45479744820244 107.68017299344265 l -10.842412246140269 4.260462458544331 a32.64943962926621,32.64943962926621 0 0,0 -0.20103615772050004,-0.5248419702354207 l 10.914142683454278 -4.073196921475753" fill="#ff830c" stroke="none" /><path d="M 79.97269907076064 106.31721596034903 l -22.14936606901884 6.986579436599764 a44.22513098958371,44.22513098958371 0 0,0 -0.2227540400527344,-0.7279730913548406 l 22.266346881577704 -6.604279372692876" fill="#e5ff1a" stroke="none" /><path d="M 79.58551787078972 104.9243191809786 l -11.418445368239004 2.7543226023510563 a32.745943454030446,32.745943454030446 0 0,0 -0.12745880409535668,-0.5490891921359717 l 11.464164738264916 -2.5573647528665107" fill="#ff840c" stroke="none" /><path d="M 79.4281124754447 104.21870165774334 l -37.35016271335533 7.659442682045379 a59.127440471577124,59.127440471577124 0 0,0 -0.19588095221832916,-0.9987927552808874 l 37.476473598549326 -7.015386199696537" fill="#3fff2d" stroke="none" /><path d="M 79.35854240842038 103.8639653848113 l -61.92437277473888 11.591896154433886 a84.0,84.0 0 0,0 -0.25381423064324515,-1.4235249970671453 l 62.11473344772131 -10.524252406633527" fill="#4dd2ff" stroke="none" /><path d="M 79.1416061653843 102.43462659150553 l -25.593185455025548 2.9872793832634925 a46.76693578695384,46.76693578695384 0 0,0 -0.08644689586179242,-0.8003908921909249 l 25.640814652388393 -2.5462921691877853" fill="#c7ff1e" stroke="none" /><path d="M 79.07016306316243 101.71520430193888 l -35.58032184551563 2.9158144556007897 a56.69959770879733,56.69959770879733 0 0,0 -0.07134278541972344,-0.9734156249451503 l 35.62524118959969 -2.3029256941588785" fill="#58ff2a" stroke="none" /><line stroke="#e1ed5e" stroke-width="0.3" x1="15.007084014347285" x2="10.007500721073583" y1="101.09737516637583" y2="101.16192664675087" /><path d="M 14.007167355692545 101.11028546245083 a86.0,86.0 0 0,1 10.666146001902534,-42.60595125391555" fill="none" id="id34" stroke="none" /><text fill="#e1ed5e" style="font-size:6.75px; font-family:Arial;" text-anchor="middle"><textPath startOffset="22.20632615414155" xlink:href="#id34">October</textPath></text><line stroke="#e1ed5e" stroke-width="0.3" x1="26.266209847984243" x2="21.928928074336255" y1="57.711370442889674" y2="55.22380399835377" /><path d="M 25.398753493254645 57.213857153982495 a86.0,86.0 0 0,1 29.58750427330803,-30.492523968695096" fill="none" id="id35" stroke="none" /><text fill="#e1ed5e" style="font-size:6.75px; font-family:Arial;" text-anchor="middle"><textPath startOffset="21.46611528233685" xlink:href="#id35">November</textPath></text><line stroke="#e1ed5e" stroke-width="0.3" x1="56.762969772571076" x2="54.21961505331055" y1="26.818313649435495" y2="22.513508569990535" /><path d="M 56.25429882871897 25.957352633546506 a86.0,86.0 0 0,1 42.265352541879196,-11.944610805530505" fill="none" id="id36" stroke="none" /><text fill="#e1ed5e" style="font-size:6.75px; font-family:Arial;" text-anchor="middle"><textPath startOffset="22.20632615414155" xlink:href="#id36">December</textPath></text></svg>