<?xml version="1.0" encoding="utf-8" ?>
<svg baseProfile="full" height="200mm" version="1.1" viewBox="0,0,200,200" width="200mm" xmlns="http://www.w3.org/2000/svg" xmlns:ev="http://www.w3.org/2001/xml-events" xmlns:xlink="http://www.w3.org/1999/xlink"><defs /><rect fill="#1a1a1a" height="200" width="200" x="0" y="0" /><rect fill="#1a1a1a" height="200" width="180" x="10" y="0" /><text alignment-baseline="middle" fill="#e1ed5e" style="dominant-baseline: central; font-size:9.0px; font-family:Arial;" text-anchor="middle" x="100.0" y="100.0">2025</text><line stroke="#e1ed5e" stroke-width="0.3" x1="100.0" x2="100.0" y1="15.0" y2="10.0" /><path d="M 100.0 14.0 a86.0,86.0 0 0,1 42.46469731375804,11.215312516191453" fill="none" id="id25" stroke="none" /><text fill="#e1ed5e" style="font-size:6.75px; font-family:Arial;" text-anchor="middle"><textPath startOffset="22.20632615414155" xlink:href="#id25">January</textPath></text><line stroke="#e1ed5e" stroke-width="0.3" x1="143.23703022742887" x2="145.7803849466894" y1="26.81831364943548" y2="22.513508569990506" /><path d="M 143.74570117128098 25.957352633546492 a86.0,86.0 0 0,1 28.547481713284135,27.462654790039103" fill="none" id="id26" stroke="none" /><text fill="#e1ed5e" style="font-size:6.75px; font-family:Arial;" text-anchor="middle"><textPath startOffset="19.985693538727396" xlink:href="#id26">February</textPath></text><path d="M 116.82858285166822 87.43820079747576 l 17.79012263236858 -13.279546487418166 a43.1998832921755,43.1998832921755 0 0,0 0.43968715212313486,0.5997327813655958 l -18.016072397005342 12.971351262381075" fill="red" stroke="none" /><line stroke="#e1ed5e" stroke-width="0.3" x1="172.23445277983987" x2="176.4835382374775" y1="55.19839476539836" y2="52.563006222186495" /><path d="M 173.08426987136738 54.67131705675599 a86.0,86.0 0 0,1 12.851231095245387,41.99856678651699" fill="none" id="id27" stroke="none" /><text fill="#e1ed5e" style="font-size:6.75px; font-family:Arial;" text-anchor="middle"><textPath startOffset="22.20632615414155" xlink:href="#id27">March</textPath></text><path d="M 118.73160827565052 90.50648371742162 l 10.836629659452713 -5.492198993613296 a33.148942018199655,33.148942018199655 0 0,0 0.25357360078151514,0.5111889059046775 l -10.929563273187636 5.304850499209668" fill="red" stroke="none" /><path d="M 119.196687751892 91.48605970444005 l 17.437541811974633 -7.733739893427703 a40.075602144717706,40.075602144717706 0 0,0 0.2742493493735487,0.6330053101242781 l -17.568081871190863 7.432435438716823" fill="red" stroke="none" /><line stroke="#e1ed5e" stroke-width="0.3" x1="184.98032266829074" x2="189.97916517819016" y1="98.17113171792111" y2="98.06355123074" /><path d="M 185.9800911702706 98.14961562048488 a86.0,86.0 0 0,1 -9.607161424134198,41.387399972396054" fill="none" id="id28" stroke="none" /><text fill="#e1ed5e" style="font-size:6.75px; font-family:Arial;" text-anchor="middle"><textPath startOffset="21.466115282336823" xlink:href="#id28">April</textPath></text><line stroke="#e1ed5e" stroke-width="0.3" x1="174.80103733775053" x2="179.2010983576182" y1="140.37084112569926" y2="142.7455964860345" /><path d="M 175.68104954172406 140.8457921977663 a86.0,86.0 0 0,1 -30.038265399797805,32.042727171017184" fill="none" id="id29" stroke="none" /><text fill="#e1ed5e" style="font-size:6.75px; font-family:Arial;" text-anchor="middle"><textPath startOffset="22.206326154141568" xlink:href="#id29">May</textPath></text><path d="M 117.35343817320211 111.8261652097733 l 15.727226866046065 10.717921218439788 a40.03206505192652,40.03206505192652 0 0,0 -0.39296064639192785,0.566089119517487 l -15.540405312492 -10.987051600144294" fill="red" stroke="none" /><path d="M 116.27256486870786 113.27417163493432 l 17.59047850315225 14.3492456582849 a43.700788200669805,43.700788200669805 0 0,0 -0.48050889539712854,0.5788039187272225 l -17.340873607861578 -14.649910834125892" fill="red" stroke="none" /><path d="M 115.56566222782051 114.09645910891815 l 18.620842902082114 16.863269079142977 a46.121815906092486,46.121815906092486 0 0,0 -0.5379859274265428,0.583877470710406 l -18.32781056665985 -17.181297804654715" fill="red" stroke="none" /><path d="M 114.81725581225074 114.88116024355365 l 16.681979676597827 16.753926360771178 a44.642810628869114,44.642810628869114 0 0,0 -0.5492129643831779,0.5375204796550792 l -16.391116759838855 -17.03859694334883" fill="red" stroke="none" /><path d="M 114.0293411484842 115.62618273729858 l 16.40995003831842 18.277756260593087 a45.56344507966577,45.56344507966577 0 0,0 -0.588110486512577,0.5189391259135868 l -16.092897198899255 -18.557518528278965" fill="red" stroke="none" /><path d="M 112.92097659922987 116.55440617244103 l 15.923158427993638 20.400813370472743 a46.8793384865194,46.8793384865194 0 0,0 -0.6403969256672245,0.49102905467582114 l -15.56963277383292 -20.671881766975936" fill="red" stroke="none" /><path d="M 111.1453310114006 117.79835938074945 l 12.539083128085522 20.024089691950067 a44.6261036500795,44.6261036500795 0 0,0 -0.6545603881048193,0.40208445195748826 l -12.192543540048394 -20.236962610735933" fill="red" stroke="none" /><line stroke="#e1ed5e" stroke-width="0.3" x1="143.8653032363475" x2="146.44561519142675" y1="172.8068346515853" y2="177.08958963109032" /><path d="M 144.38136562736335 173.6633856474863 a86.0,86.0 0 0,1 -40.68145358897372,12.25698825130547" fill="none" id="id30" stroke="none" /><text fill="#e1ed5e" style="font-size:6.75px; font-family:Arial;" text-anchor="middle"><textPath startOffset="21.466115282336833" xlink:href="#id30">June</textPath></text><path d="M 103.06178313531738 120.77559828337769 l 3.6018828226726036 24.440421571493076 a45.704407834647,45.704407834647 0 0,0 -0.7793067477297007,0.10800481417607888 l -3.1806474837560725 -24.49880095116176" fill="red" stroke="none" /><path d="M 102.70371172650421 120.8252237178851 l 3.295507573835022 25.383505873177725 a46.59653766787321,46.59653766787321 0 0,0 -0.7962961690358611,0.09642037655174761 l -2.8580839817477806 -25.436471778454823" fill="red" stroke="none" /><line stroke="#e1ed5e" stroke-width="0.3" x1="102.19456741930631" x2="102.32365962044197" y1="184.97166512339345" y2="189.96999836594603" /><path d="M 102.22038585953345 185.97133177190398 a86.0,86.0 0 0,1 -42.740103519485714,-10.115201625700543" fill="none" id="id31" stroke="none" /><text fill="#e1ed5e" style="font-size:6.75px; font-family:Arial;" text-anchor="middle"><textPath startOffset="22.20632615414155" xlink:href="#id31">July</textPath></text><path d="M 100.18074693466247 120.99922214144158 l 0.172223828405977 20.009005616058793 a41.00974679476337,41.00974679476337 0 0,0 -0.7059415261368511,0.0 l 0.1722238284059632 -20.009005616058793" fill="red" stroke="none" /><path d="M 99.81925306533755 120.99922214144158 l -0.03603111751886407 4.18610385949859 a25.18625892222861,25.18625892222861 0 0,0 -0.43349186834732706,-0.007462955637930251 l 0.10808267575885905 -4.1848634265815" fill="red" stroke="none" /><path d="M 96.22490169976321 120.6578951692458 l -4.4377158311232945 24.283836112160902 a45.685988295389194,45.685988295389194 0 0,0 -0.7723812097696021,-0.14802869713511302 l 4.8550646554645915 -24.20385021667732" fill="red" stroke="none" /><path d="M 94.46302465271185 120.25689768951611 l -7.084209519272682 25.917418525854004 a47.868170900849094,47.868170900849094 0 0,0 -0.7929449855355755,-0.2240941734257311 l 7.529285672912871 -25.79163555908975" fill="red" stroke="none" /><path d="M 94.11515582081647 120.15858648285463 l -6.01117478586829 20.591333108380308 a42.45080934339163,42.45080934339163 0 0,0 -0.6996803556673181,-0.2108079515970863 l 6.364730115975854 -20.4848097876775" fill="red" stroke="none" /><path d="M 93.42475214034765 119.94407469862007 l -6.412568251271267 19.450634096722187 a41.48043452521904,41.48043452521904 0 0,0 -0.6761908680427692,-0.22940065561556727 l 6.746428852251261 -19.337370454208497" fill="red" stroke="none" /><path d="M 92.40401165467489 119.57807347666478 l -7.457762332700752 19.221806601504067 a41.617857988566016,41.617857988566016 0 0,0 -0.6656457789829673,-0.2648741928205733 l 7.7875291877255775 -19.090585564277426" fill="red" stroke="none" /><path d="M 91.7346041902142 119.30500536409082 l -8.301384934571914 19.3890630744575 a42.09143804336795,42.09143804336795 0 0,0 -0.6636002338135075,-0.29090284109062364 l 8.633905843043165 -19.243295680072425" fill="red" stroke="none" /><path d="M 90.10565033884886 118.52300852407294 l -8.981536888440031 16.81415050420755 a40.062624742058794,40.062624742058794 0 0,0 -0.6054744376093548,-0.33015293936446544 l 9.269634137918027 -16.65705691308332" fill="red" stroke="none" /><line stroke="#e1ed5e" stroke-width="0.3" x1="58.666819895761336" x2="56.23545636021788" y1="174.27360380694188" y2="178.64263932499728" /><path d="M 58.180547188652646 175.14741091055294 a86.0,86.0 0 0,1 -31.652253787137756,-30.449443065178592" fill="none" id="id32" stroke="none" /><text fill="#e1ed5e" style="font-size:6.75px; font-family:Arial;" text-anchor="middle"><textPath startOffset="22.20632615414155" xlink:href="#id32">August</textPath></text><path d="M 89.1626897886671 117.98757091392108 l -26.30602986630929 43.66227121459934 a71.9745145631068,71.9745145631068 0 0,0 -1.055697502867231,-0.6484956309413649 l 27.053706569108833 -43.2029871168296" fill="red" stroke="none" /><path d="M 87.36589467227662 116.77436683061367 l -17.385098154702447 23.082284520241007 a49.89694614525895,49.89694614525895 0 0,0 -0.6816190659515453,-0.5226364340435996 l 17.77984594914748 -22.77960874437004" fill="red" stroke="none" /><path d="M 85.18274418774928 114.88116024355367 l -15.012516964459142 15.0772635255765 a42.276737086025506,42.276737086025506 0 0,0 -0.5112654154789806,-0.5179091666123922 l 15.269823004993656 -14.816613864983443" fill="red" stroke="none" /><path d="M 84.43433777217949 114.09645910891817 l -14.186054266202229 12.847068820689293 a40.138738540644766,40.138738540644766 0 0,0 -0.459380504501102,-0.5161188666662847 l 14.405093620351668 -12.600975784282143" fill="red" stroke="none" /><path d="M 83.95833913139862 113.55231037782056 l -12.900620844651165 10.898698032913677 a37.88809157335679,37.88809157335679 0 0,0 -0.41659580479467045,-0.5018164838367694 l 13.086312649339371 -10.675020291963147" fill="red" stroke="none" /><path d="M 83.72743513129214 113.27417163493432 l -12.08121575208786 9.85512319328801 a36.5909982747539,36.5909982747539 0 0,0 -0.3939318709501592,-0.49149057880447605 l 12.24906553509288 -9.645704780905275" fill="red" stroke="none" /><path d="M 83.28015986056508 112.70617746262583 l -17.073888473054843 12.97523511627597 a42.44468218260546,42.44468218260546 0 0,0 -0.43705639574744276,-0.5855084648391218 l 17.29470613549737 -12.67941377192754" fill="red" stroke="none" /><path d="M 83.06392112726016 112.41649034213515 l -15.856503798626669 11.62501236296065 a40.661373938635364,40.661373938635364 0 0,0 -0.40897637360055356,-0.5680324128466909 l 16.05425996460283 -11.350346344662821" fill="red" stroke="none" /><path d="M 82.05923443525364 110.91462005526583 l -13.881882699184066 8.445318276221743 a37.24900206352965,37.24900206352965 0 0,0 -0.3285346449200817,-0.5506429621635273 l 14.02519821980238 -8.205113220172104" fill="red" stroke="none" /><line stroke="#e1ed5e" stroke-width="0.3" x1="26.63291911575756" x2="22.317208475507996" y1="142.92168965132927" y2="145.44649492493687" /><path d="M 25.769776987707644 143.4266507060508 a86.0,86.0 0 0,1 -11.730757126820373,-40.83630448921669" fill="none" id="id33" stroke="none" /><text fill="#e1ed5e" style="font-size:6.75px; font-family:Arial;" text-anchor="middle"><textPath startOffset="21.46611528233685" xlink:href="#id33">September</textPath></text><path d="M 80.45479744820244 107.68017299344265 l -17.915495062304185 7.039788970056456 a40.24898937789655,40.24898937789655 0 0,0 -0.24782974129248161,-0.6470052510838302 l 18.034019083190177 -6.730360152139468" fill="red" stroke="none" /><path d="M 79.97269907076064 106.31721596034903 l -36.59857690653071 11.544297205942982 a59.37612056425696,59.37612056425696 0 0,0 -0.2990668527688849,-0.977367778741015 l 36.79187053180573 -10.91260245464992" fill="red" stroke="none" /><path d="M 79.58551787078972 104.9243191809786 l -18.867305261031625 4.551113890728445 a40.40844778593417,40.40844778593417 0 0,0 -0.1572839835069986,-0.6775752844438587 l 18.942849810469177 -4.2256699489360114" fill="red" stroke="none" /><path d="M 79.4281124754447 104.21870165774334 l -61.715662573665874 12.656104973230022 a84.0,84.0 0 0,0 -0.2782802680973342,-1.4189450917281805 l 61.92437277473888 -11.591896154433886" fill="red" stroke="none" /><line stroke="#e1ed5e" stroke-width="0.3" x1="15.007084014347285" x2="10.007500721073583" y1="101.09737516637583" y2="101.16192664675087" /><path d="M 14.007167355692545 101.11028546245083 a86.0,86.0 0 0,1 10.666146001902534,-42.60595125391555" fill="none" id="id34" stroke="none" /><text fill="#e1ed5e" style="font-size:6.75px; font-family:Arial;" text-anchor="middle"><textPath startOffset="22.20632615414155" xlink:href="#id34">October</textPath></text><line stroke="#e1ed5e" stroke-width="0.3" x1="26.266209847984243" x2="21.928928074336255" y1="57.711370442889674" y2="55.22380399835377" /><path d="M 25.398753493254645 57.213857153982495 a86.0,86.0 0 0,1 29.58750427330803,-30.492523968695096" fill="none" id="id35" stroke="none" /><text fill="#e1ed5e" style="font-size:6.75px; font-family:Arial;" text-anchor="middle"><textPath startOffset="21.46611528233685" xlink:href="#id35">November</textPath></text><line stroke="#e1ed5e" stroke-width="0.3" x1="56.762969772571076" x2="54.21961505331055" y1="26.818313649435495" y2="22.513508569990535" /><path d="M 56.25429882871897 25.957352633546506 a86.0,86.0 0 0,1 42.265352541879196,-11.944610805530505" fill="none" id="id36" stroke="none" /><text fill="#e1ed5e" style="font-size:6.75px; font-family:Arial;" text-anchor="middle"><textPath startOffset="22.20632615414155" xlink:href="#id36">December</textPath></text></svg>