<?xml version="1.0" encoding="utf-8" ?>
<svg baseProfile="full" height="200mm" version="1.1" viewBox="0,0,200,200" width="200mm" xmlns="http://www.w3.org/2000/svg" xmlns:ev="http://www.w3.org/2001/xml-events" xmlns:xlink="http://www.w3.org/1999/xlink"><defs /><rect fill="#1a1a1a" height="200" width="200" x="0" y="0" /><rect fill="#1a1a1a" height="200" width="180" x="10" y="0" /><text alignment-baseline="middle" fill="#e1ed5e" style="dominant-baseline: central; font-size:9.0px; font-family:Arial;" text-anchor="middle" x="100.0" y="100.0">2024</text><line stroke="#e1ed5e" stroke-width="0.3" x1="100.0" x2="100.0" y1="15.0" y2="10.0" /><path d="M 100.0 14.0 a86.0,86.0 0 0,1 42.35913384403234,11.155469271406648" fill="none" id="id13" stroke="none" /><text fill="#e1ed5e" style="font-size:6.75px; font-family:Arial;" text-anchor="middle"><textPath startOffset="22.145653131862478" xlink:href="#id13">January</textPath></text><path d="M 100.0 79.0 l 0.0 -41.678816600862746 a62.678816600862746,62.678816600862746 0 0,0 1.0759652344052364,0.0092358674723346 l -0.7154723095563816 41.672675131584846" fill="red" stroke="none" /><path d="M 100.72087961077811 79.0123766808444 l 0.822307985549455 -23.940599782558856 a44.954717872931745,44.954717872931745 0 0,0 0.7710253008231992,0.033111143935030826 l -1.2331590469734903 23.922956070197994" fill="red" stroke="none" /><path d="M 101.44090949804482 79.04949213459386 l 2.2948680260592087 -33.36687744460074 a54.44570121345992,54.44570121345992 0 0,0 0.93187967225339,0.07213338025136058 l -2.867316693087832 33.32256629735432" fill="red" stroke="none" /><path d="M 102.15924093988457 79.11130261209362 l 3.9094006452012913 -37.819904919949 a59.02142319217789,59.02142319217789 0 0,0 1.0069169983896877,0.11282714989743876 l -4.558053545191775 37.74722200954459" fill="red" stroke="none" /><path d="M 102.87502721639298 79.19773525538626 l 4.946847435498799 -35.79292377397573 a57.13315225440119,57.13315225440119 0 0,0 0.970379097458989,0.14261231048701176 l -5.56055163856547 35.702730390189835" fill="red" stroke="none" /><path d="M 104.64783097203109 79.52079915486377 l 12.392611762221026 -54.60413401467062 a76.99275201114202,76.99275201114202 0 0,0 1.2863943369423114,0.3035855608482016 l -13.328138252903223 54.38335231017619" fill="red" stroke="none" /><line stroke="#e1ed5e" stroke-width="0.3" x1="143.13028292997686" x2="145.6673583964461" y1="26.7553504044142" y2="22.446841604673864" /><path d="M 143.63769802327073 25.89364864446614 a86.0,86.0 0 0,1 29.32050498858742,28.57503671076993" fill="none" id="id14" stroke="none" /><text fill="#e1ed5e" style="font-size:6.75px; font-family:Arial;" text-anchor="middle"><textPath startOffset="20.669276256404974" xlink:href="#id14">February</textPath></text><path d="M 115.16444852881244 85.47280134310134 l 14.3737738948631 -13.76975024335901 a40.90505960164735,40.90505960164735 0 0,0 0.48140223101036805,0.5112324868538947 l -14.608031959609729 13.52097629656062" fill="red" stroke="none" /><line stroke="#e1ed5e" stroke-width="0.3" x1="172.87174338648825" x2="177.1583165268699" y1="56.24261187166439" y2="53.66864786411523" /><path d="M 173.72905801456457 55.72781907015455 a86.0,86.0 0 0,1 12.242430191666344,42.057860355516425" fill="none" id="id15" stroke="none" /><text fill="#e1ed5e" style="font-size:6.75px; font-family:Arial;" text-anchor="middle"><textPath startOffset="22.145653131862474" xlink:href="#id15">March</textPath></text><path d="M 120.16314734710363 94.1308016681162 l 19.278923730611446 -5.611813723935988 a41.07907750577425,41.07907750577425 0 0,0 0.1912749591761773,0.6787673518036971 l -19.372417181862208 5.280038448229278" fill="red" stroke="none" /><line stroke="#e1ed5e" stroke-width="0.3" x1="184.99686870605535" x2="189.99668451229388" y1="99.2704041080226" y2="99.22748670261217" /><path d="M 185.99683186730306 99.26182062694052 a86.0,86.0 0 0,1 -10.086455211305974,41.156179273409016" fill="none" id="id16" stroke="none" /><text fill="#e1ed5e" style="font-size:6.75px; font-family:Arial;" text-anchor="middle"><textPath startOffset="21.40746469413373" xlink:href="#id16">April</textPath></text><line stroke="#e1ed5e" stroke-width="0.3" x1="174.33088141563837" x2="178.70328620479359" y1="141.23008692659167" y2="143.65538615756765" /><path d="M 175.20536237346943 141.71514677278685 a86.0,86.0 0 0,1 -30.301960400862466,31.631185727798858" fill="none" id="id17" stroke="none" /><text fill="#e1ed5e" style="font-size:6.75px; font-family:Arial;" text-anchor="middle"><textPath startOffset="22.145653131862474" xlink:href="#id17">May</textPath></text><path d="M 116.57777611688842 112.89097897827486 l 14.98896701009194 11.655511407003946 a39.98736627835529,39.98736627835529 0 0,0 -0.42602458031903245,0.5382681401080758 l -14.786675999131345 -11.911099491026704" fill="red" stroke="none" /><path d="M 116.1254893667686 113.45245675266167 l 17.664071525113155 14.735996710723402 a44.00367409573445,44.00367409573445 0 0,0 -0.4888712567712383,0.5758891112272283 l -17.408505704834802 -15.037052604400188" fill="red" stroke="none" /><path d="M 115.41159269507618 114.26474011684316 l 14.741860005466899 13.6448455378693 a41.087415119250565,41.087415119250565 0 0,0 -0.483548331122827,0.513511570802519 l -14.50545584060781 -13.895898568616316" fill="red" stroke="none" /><path d="M 115.16444852881244 114.52719865689866 l 14.963604652495532 14.334794766659346 a41.721867801876115,41.721867801876115 0 0,0 -0.4998939342663425,0.5129352148092441 l -14.715323917078383 -14.589552673536327" fill="red" stroke="none" /><path d="M 114.65682725009322 115.03919595460226 l 27.03412130356811 27.73939003356013 a59.73393181811021,59.73393181811021 0 0,0 -0.7404945704618843,0.7093770478376299 l -26.553954247240913 -28.19937921170334" fill="red" stroke="none" /><path d="M 114.13192950727249 115.5334660781643 l 8.771533239671841 9.641451576857623 a34.03446906795817,34.03446906795817 0 0,0 -0.4355358158123006,0.3894588121464736 l -8.604732397036162 -9.790605918887483" fill="red" stroke="none" /><path d="M 113.86319453409587 115.77377054828091 l 13.78861843932371 15.688916642175089 a41.887031954549606,41.887031954549606 0 0,0 -0.5441734213823864,0.47004404065368954 l -13.517265538178467 -15.923304815293497" fill="red" stroke="none" /><path d="M 113.59037401385872 116.0094264158162 l 13.00366479296783 15.31828442886607 a41.09341026036924,41.09341026036924 0 0,0 -0.5417005074707204,0.45190582957824843 l -12.738789951335214 -15.539252442356188" fill="red" stroke="none" /><path d="M 113.31354834802062 116.24036423190432 l 13.220080783985827 16.1263490013952 a41.85256981884754,41.85256981884754 0 0,0 -0.5595274635854502,0.4507157177934797 l -12.941302550045124 -16.350913012982087" fill="red" stroke="none" /><path d="M 113.03279911837588 116.46651593811092 l 12.630271711075904 15.957935708520347 a41.35139984307893,41.35139984307893 0 0,0 -0.560390341464407,0.43576291901340314 l -12.354471424976266 -16.172399679154545" fill="red" stroke="none" /><path d="M 112.45986205192187 116.90419585922612 l 23.87946341019176 32.3970782996624 a61.246732229003925,61.246732229003925 0 0,0 -0.8516766125433268,0.6165481880538634 l -23.319805787274465 -32.802227259089335" fill="red" stroke="none" /><path d="M 112.16784306229584 117.11559508785304 l 11.761825262491557 16.54448020542622 a41.29926990739136,41.29926990739136 0 0,0 -0.5813460435983222,0.4058246880406536 l -11.476084127719476 -16.743949709271995" fill="red" stroke="none" /><path d="M 111.8722381534696 117.32195027204791 l 11.758071154169885 17.155377208147524 a41.79805770788103,41.79805770788103 0 0,0 -0.5953311528934703,0.4005653684519198 l -11.461843713179412 -17.354692250656566" fill="red" stroke="none" /><path d="M 111.5731344415666 117.5232005979908 l 11.053468953112866 16.736360814524577 a41.05704238444402,41.05704238444402 0 0,0 -0.5914450103965352,0.38336751010314263 l -10.76453831045932 -16.923642166331614" fill="red" stroke="none" /><path d="M 110.96478420261333 117.91015095944535 l 15.088758128261132 24.646352438318484 a49.89832712056139,49.89832712056139 0 0,0 -0.7343780197879625,0.44097290048832505 l -14.663447351915734 -24.901739339342733" fill="red" stroke="none" /><line stroke="#e1ed5e" stroke-width="0.3" x1="143.1302829299769" x2="145.66735839644613" y1="173.24464959558577" y2="177.55315839532614" /><path d="M 143.63769802327073 174.10635135553383 a86.0,86.0 0 0,1 -40.68552437913181,11.842963189579606" fill="none" id="id18" stroke="none" /><text fill="#e1ed5e" style="font-size:6.75px; font-family:Arial;" text-anchor="middle"><textPath startOffset="21.407464694133747" xlink:href="#id18">June</textPath></text><path d="M 110.34350942703117 118.27599006163325 l 31.03052828109348 54.82797018489977 a84.0,84.0 0 0,0 -1.2610232473756222,0.6994683382674252 l -30.084760845561767 -55.352571438600336" fill="red" stroke="none" /><path d="M 110.02825361518725 118.45085714620011 l 10.766210627724044 19.808614931437244 a43.54534357206553,43.54534357206553 0 0,0 -0.6598388259546836,0.3513270092511963 l -10.424582985982807 -19.990512408411007" fill="red" stroke="none" /><path d="M 109.71004243097381 118.62028667847754 l 8.079905000085583 15.494283213072347 a38.47448646161894,38.47448646161894 0 0,0 -0.5882433457797693,0.30036124375493045 l -7.812734432592232 -15.630702408500113" fill="red" stroke="none" /><path d="M 109.06512990194946 118.94263497670748 l 13.014131596535151 27.194529702104557 a51.14813538065964,51.14813538065964 0 0,0 -0.7952592126768331,0.3722214665244251 l -12.545383669986812 -27.413927400199515" fill="red" stroke="none" /><path d="M 107.74402155503746 119.51999308798841 l 15.975152917282491 40.267821093817105 a64.32092942648185,64.32092942648185 0 0,0 -1.029832408351398,0.39836129887016325 l -15.281548246437564 -40.53612228082531" fill="red" stroke="none" /><path d="M 107.407793817531 119.65005319985036 l 7.203213902374345 19.107380669341286 a41.420046194033844,41.420046194033844 0 0,0 -0.667475855764202,0.24510637974057647 l -6.874148894956016 -19.228217898090584" fill="red" stroke="none" /><path d="M 107.06938296918513 119.77432235084164 l 6.828973560359623 19.1018544470638 a41.285850319986636,41.285850319986636 0 0,0 -0.6694092252461257,0.23285527736370373 l -6.5000585630684755 -19.216268156996094" fill="red" stroke="none" /><path d="M 106.72888874123015 119.89276391827305 l 9.5000992925124 28.08535550129381 a50.648593224664964,50.648593224664964 0 0,0 -0.825999597598894,0.27152247416746256 l -9.016576957265773 -28.244298896863295" fill="red" stroke="none" /><path d="M 106.38641147887787 120.00534299687104 l 6.17326076726832 19.337651428628142 a41.299111095706095,41.299111095706095 0 0,0 -0.6772255123753251,0.20980619486868576 l -5.84039462202137 -19.440774211303474" fill="red" stroke="none" /><path d="M 105.69591212413111 120.21278271476187 l 8.668856015175502 30.762711783765145 a52.96081195625116,52.96081195625116 0 0,0 -0.8771788295230633,0.2390789906275059 l -8.139495784717743 -30.906991268536792" fill="red" stroke="none" /><path d="M 104.9986988182912 120.39639698878246 l 4.983952706392979 20.336227820114686 a41.93805020844034,41.93805020844034 0 0,0 -0.700700635856394,0.16536344215319482 l -4.634119916796706 -20.418787405914106" fill="red" stroke="none" /><path d="M 104.29559338865022 120.5559693870025 l 4.151209950828672 19.86504236963357 a41.29414823054163,41.29414823054163 0 0,0 -0.6951250726905719,0.13904448265118238 l -3.809588392607142 -19.933376248947614" fill="red" stroke="none" /><path d="M 103.2317021107853 120.74984581791261 l 6.422818156247501 41.23909998197209 a62.736266728006626,62.736266728006626 0 0,0 -1.0655453004657065,0.15659846510081626 l -5.713947750174109 -41.34327952037179" fill="red" stroke="none" /><line stroke="#e1ed5e" stroke-width="0.3" x1="101.45913802915013" x2="101.54496967792366" y1="184.9874750549273" y2="189.98673829345242" /><path d="M 101.47630435890484 185.9873277026323 a86.0,86.0 0 0,1 -42.54439059252881,-10.42667462771756" fill="none" id="id19" stroke="none" /><text fill="#e1ed5e" style="font-size:6.75px; font-family:Arial;" text-anchor="middle"><textPath startOffset="22.145653131862474" xlink:href="#id19">July</textPath></text><path d="M 98.19965949673042 120.92268563240118 l -1.738438747506904 20.20329339878531 a41.27794943864481,41.27794943864481 0 0,0 -0.7054606702905184,-0.06680785894120596 l 2.0849989811824376 -20.17047378433892" fill="red" stroke="none" /><path d="M 97.84075906011543 120.88869738790638 l -2.0777692385811353 20.1005325829651 a41.207635564994625,41.207635564994625 0 0,0 -0.7030103048978875,-0.07877377100298141 l 2.422515445079822 -20.061903051455147" fill="red" stroke="none" /><path d="M 97.48249496171623 120.84855314841334 l -2.4224107331418305 20.061035886396372 a41.20676210072568,41.20676210072568 0 0,0 -0.701539587575206,-0.09082834492345555 l 2.7664281426078308 -20.01649594527252" fill="red" stroke="none" /><path d="M 96.41257539226777 120.69131181640829 l -4.7447643186685085 27.366539718028868 a48.77481385316851,48.77481385316851 0 0,0 -0.823749159582457,-0.15011453740418998 l 5.213848211802023 -27.281057006693313" fill="red" stroke="none" /><path d="M 95.70440661134978 120.55596938700252 l -5.181309371650654 24.79444099845477 a46.33002706730906,46.33002706730906 0 0,0 -0.7771036558170924,-0.1693661248848885 l 5.606175444086882 -24.701843415436162" fill="red" stroke="none" /><path d="M 93.95794788825049 120.11202640906438 l -7.139520452892483 23.765141584495808 a45.81440522818151,45.81440522818151 0 0,0 -0.7512675995113859,-0.2327446227310144 l 7.546428685275502 -23.639080373958144" fill="red" stroke="none" /><path d="M 93.61358852112213 120.00534299687104 l -7.1371117032005005 22.356900757449424 a44.46847619557785,44.46847619557785 0 0,0 -0.7252115232589518,-0.23839143222639486 l 7.519845964107196 -22.23108840382101" fill="red" stroke="none" /><path d="M 92.93061703081489 119.77432235084164 l -8.231640968610387 23.02536483017263 a45.452552803309835,45.452552803309835 0 0,0 -0.7324589025549543,-0.2689690546311265 l 8.62568902281946 -22.880664926532784" fill="red" stroke="none" /><path d="M 92.59220618246901 119.65005319985036 l -8.988986202261074 23.844353857303087 a46.482446582240186,46.482446582240186 0 0,0 -0.7442232308624785,-0.2878815334335101 l 9.39698169561708 -23.686532435731536" fill="red" stroke="none" /><path d="M 90.6110303473126 118.78422872680471 l -12.290211185065093 24.588655256215127 a48.48911163138043,48.48911163138043 0 0,0 -0.7413587518155984,-0.37854306106728614 l 12.710497158594274 -24.374054243475005" fill="red" stroke="none" /><path d="M 89.97174638481275 118.45085714620012 l -19.22727884918315 35.3760274689472 a61.26352656472049,61.26352656472049 0 0,0 -0.9196991811229112,-0.5101416324122162 l 19.831722218462165 -35.04075292110184" fill="red" stroke="none" /><line stroke="#e1ed5e" stroke-width="0.3" x1="58.13341422392154" x2="55.67067388415222" y1="173.97424548756322" y2="178.32567169271397" /><path d="M 57.64086615596768 174.84453072859336 a86.0,86.0 0 0,1 -31.369924170532247,-30.572349798747897" fill="none" id="id20" stroke="none" /><text fill="#e1ed5e" style="font-size:6.75px; font-family:Arial;" text-anchor="middle"><textPath startOffset="22.145653131862474" xlink:href="#id20">August</textPath></text><path d="M 86.68645165197938 116.24036423190432 l -16.94759912070446 20.673315286188327 a47.732135733574495,47.732135733574495 0 0,0 -0.6292133455391273,-0.5249121515968512 l 17.299986800405478 -20.379340950679605" fill="red" stroke="none" /><path d="M 83.8745106332314 113.45245675266167 l -20.51650528797379 17.115598406024027 a47.71835881987793,47.71835881987793 0 0,0 -0.5193420328093086,-0.6335128361940215 l 20.807294140021728 -16.76088328813151" fill="red" stroke="none" /><line stroke="#e1ed5e" stroke-width="0.3" x1="26.387840678322732" x2="22.057713659400548" y1="142.50000000000003" y2="145.00000000000006" /><path d="M 25.521815274538298 143.00000000000003 a86.0,86.0 0 0,1 -11.493303480769221,-40.785679425670985" fill="none" id="id21" stroke="none" /><text fill="#e1ed5e" style="font-size:6.75px; font-family:Arial;" text-anchor="middle"><textPath startOffset="21.40746469413373" xlink:href="#id21">September</textPath></text><line stroke="#e1ed5e" stroke-width="0.3" x1="15.003131293944662" x2="10.003315487706104" y1="100.72959589197737" y2="100.7725132973878" /><path d="M 14.003168132696942 100.73817937305945 a86.0,86.0 0 0,1 10.791469493833604,-42.45332614584628" fill="none" id="id22" stroke="none" /><text fill="#e1ed5e" style="font-size:6.75px; font-family:Arial;" text-anchor="middle"><textPath startOffset="22.145653131862435" xlink:href="#id22">October</textPath></text><path d="M 79.0935383218832 98.0201363427161 l -32.688065127542664 -3.0955937532314515 a53.834315928118805,53.834315928118805 0 0,0 0.09502425208769649,-0.9192734398960173 l 32.6301084829733 3.6562717154103814" fill="red" stroke="none" /><path d="M 79.13060592940154 97.66154086499901 l -18.97833395442583 -2.1265619046099076 a40.097105152872004,40.097105152872004 0 0,0 0.082519677701611,-0.6833813081561312 l 18.939032190464548 2.452036889689475" fill="red" stroke="none" /><path d="M 79.407916724674 95.88100663000787 l -38.931707714641874 -7.787431888993402 a60.70292131574221,60.70292131574221 0 0,0 0.21316058940338906,-1.0200505852972235 l 38.79228941441412 8.454598925576034" fill="red" stroke="none" /><path d="M 79.48165901384962 95.52812308129327 l -24.59431148873855 -5.360215718815206 a46.17165211418056,46.17165211418056 0 0,0 0.17542839726903964,-0.7729698870789661 l 24.49867222991185 5.78161993983318" fill="red" stroke="none" /><path d="M 79.64726062577567 94.8264132398404 l -21.625310665869804 -5.49706940614455 a43.31304177944712,43.31304177944712 0 0,0 0.18936156446179292,-0.7190367037729221 l 21.527759620603284 5.867486614290256" fill="red" stroke="none" /><path d="M 80.9802524753101 91.09779779509293 l -23.433598064297858 -10.96810712582262 a46.8734012484363,46.8734012484363 0 0,0 0.3473558802011797,-0.725840193889439 l 23.241862926136772 11.368759821777147" fill="red" stroke="none" /><line stroke="#e1ed5e" stroke-width="0.3" x1="26.387840678322718" x2="22.05771365940052" y1="57.49999999999999" y2="54.99999999999999" /><path d="M 25.521815274538284 56.99999999999999 a86.0,86.0 0 0,1 29.574782752854787,-30.34633250058573" fill="none" id="id23" stroke="none" /><text fill="#e1ed5e" style="font-size:6.75px; font-family:Arial;" text-anchor="middle"><textPath startOffset="21.40746469413373" xlink:href="#id23">November</textPath></text><path d="M 81.99639281039701 89.18935116829357 l -17.865163723772692 -10.727517508279199 a41.838514984701774,41.838514984701774 0 0,0 0.3750166114159027,-0.6125614511553775 l 17.678379147901396 11.032616075559119" fill="red" stroke="none" /><line stroke="#e1ed5e" stroke-width="0.3" x1="56.869717070023135" x2="54.33264160355391" y1="26.7553504044142" y2="22.446841604673864" /><path d="M 56.362301976729285 25.89364864446614 a86.0,86.0 0 0,1 42.16139366436587,-11.88097634709845" fill="none" id="id24" stroke="none" /><text fill="#e1ed5e" style="font-size:6.75px; font-family:Arial;" text-anchor="middle"><textPath startOffset="22.145653131862474" xlink:href="#id24">December</textPath></text></svg>