<?xml version="1.0" encoding="utf-8" ?>
<svg baseProfile="full" height="200mm" version="1.1" viewBox="0,0,200,200" width="200mm" xmlns="http://www.w3.org/2000/svg" xmlns:ev="http://www.w3.org/2001/xml-events" xmlns:xlink="http://www.w3.org/1999/xlink"><defs /><rect fill="#1a1a1a" height="200" width="200" x="0" y="0" /><rect fill="#1a1a1a" height="200" width="180" x="10" y="0" /><text alignment-baseline="middle" fill="#e1ed5e" style="dominant-baseline: central; font-size:9.0px; font-family:Arial;" text-anchor="middle" x="100.0" y="100.0">2025</text><line stroke="#e1ed5e" stroke-width="0.3" x1="100.0" x2="100.0" y1="15.0" y2="10.0" /><path d="M 100.0 14.0 a86.0,86.0 0 0,1 42.46469731375804,11.215312516191453" fill="none" id="id25" stroke="none" /><text fill="#e1ed5e" style="font-size:6.75px; font-family:Arial;" text-anchor="middle"><textPath startOffset="22.20632615414155" xlink:href="#id25">January</textPath></text><line stroke="#e1ed5e" stroke-width="0.3" x1="143.23703022742887" x2="145.7803849466894" y1="26.81831364943548" y2="22.513508569990506" /><path d="M 143.74570117128098 25.957352633546492 a86.0,86.0 0 0,1 28.547481713284135,27.462654790039103" fill="none" id="id26" stroke="none" /><text fill="#e1ed5e" style="font-size:6.75px; font-family:Arial;" text-anchor="middle"><textPath startOffset="19.985693538727396" xlink:href="#id26">February</textPath></text><path d="M 116.82858285166822 87.43820079747576 l 21.98702107210241 -16.412347147938284 a48.43709595656059,48.43709595656059 0 0,0 0.49299134986581195,0.6724396471821451 l -22.26627503448185 16.031445057084646" fill="red" stroke="none" /><line stroke="#e1ed5e" stroke-width="0.3" x1="172.23445277983987" x2="176.4835382374775" y1="55.19839476539836" y2="52.563006222186495" /><path d="M 173.08426987136738 54.67131705675599 a86.0,86.0 0 0,1 12.851231095245387,41.99856678651699" fill="none" id="id27" stroke="none" /><text fill="#e1ed5e" style="font-size:6.75px; font-family:Arial;" text-anchor="middle"><textPath startOffset="22.20632615414155" xlink:href="#id27">March</textPath></text><path d="M 118.73160827565052 90.50648371742162 l 13.393117607825854 -6.78787310802689 a36.01501983307813,36.01501983307813 0 0,0 0.2754977294984962,0.555386611569643 l -13.507975350277759 6.556326907958297" fill="red" stroke="none" /><path d="M 119.196687751892 91.48605970444005 l 21.551262303721806 -9.558219778292477 a44.575760267994795,44.575760267994795 0 0,0 0.30504527934935083,0.7040865624569713 l -21.71259829291384 9.185834071248902" fill="red" stroke="none" /><line stroke="#e1ed5e" stroke-width="0.3" x1="184.98032266829074" x2="189.97916517819016" y1="98.17113171792111" y2="98.06355123074" /><path d="M 185.9800911702706 98.14961562048488 a86.0,86.0 0 0,1 -9.607161424134198,41.387399972396054" fill="none" id="id28" stroke="none" /><text fill="#e1ed5e" style="font-size:6.75px; font-family:Arial;" text-anchor="middle"><textPath startOffset="21.466115282336823" xlink:href="#id28">April</textPath></text><line stroke="#e1ed5e" stroke-width="0.3" x1="174.80103733775053" x2="179.2010983576182" y1="140.37084112569926" y2="142.7455964860345" /><path d="M 175.68104954172406 140.8457921977663 a86.0,86.0 0 0,1 -30.038265399797805,32.042727171017184" fill="none" id="id29" stroke="none" /><text fill="#e1ed5e" style="font-size:6.75px; font-family:Arial;" text-anchor="middle"><textPath startOffset="22.206326154141568" xlink:href="#id29">May</textPath></text><path d="M 117.35343817320211 111.8261652097733 l 19.437464016146066 13.246404454244844 a44.5219522647337,44.5219522647337 0 0,0 -0.4370340405344229,0.6295801309288136 l -19.206569068449507 -13.579025847360679" fill="red" stroke="none" /><path d="M 116.27256486870786 113.27417163493432 l 21.740278552856687 17.734400890719364 a49.05617020387045,49.05617020387045 0 0,0 -0.5393936157131837,0.6497343576817828 l -21.43178893724996 -18.105996505514916" fill="red" stroke="none" /><path d="M 115.56566222782051 114.09645910891815 l 23.013717989974207 20.841511902399116 a52.04834672087882,52.04834672087882 0 0,0 -0.6071156898649215,0.6589041745433664 l -22.651555892113564 -21.23456733174382" fill="red" stroke="none" /><path d="M 114.81725581225074 114.88116024355365 l 20.61745420497456 20.706373955202093 a50.220426763941944,50.220426763941944 0 0,0 -0.6178309355320162,0.6046776065927253 l -20.25797331706675 -21.058201664717387" fill="red" stroke="none" /><path d="M 114.0293411484842 115.62618273729858 l 20.281249586676804 22.589693188579588 a51.358249672061746,51.358249672061746 0 0,0 -0.6629069673783367,0.5849383238399098 l -19.88940026639188 -22.935454654191787" fill="red" stroke="none" /><path d="M 112.92097659922987 116.55440617244103 l 19.67961812999085 25.213604354164723 a52.98457775664107,52.98457775664107 0 0,0 -0.723797771013475,0.5549772664928374 l -19.242691630483883 -25.548620962484932" fill="red" stroke="none" /><path d="M 111.1453310114006 117.79835938074945 l 15.4971998034706 24.748007144454245 a50.199778413040185,50.199778413040185 0 0,0 -0.7363131385716883,0.4523036684955724 l -15.068907464966603 -25.011099279778197" fill="red" stroke="none" /><line stroke="#e1ed5e" stroke-width="0.3" x1="143.8653032363475" x2="146.44561519142675" y1="172.8068346515853" y2="177.08958963109032" /><path d="M 144.38136562736335 173.6633856474863 a86.0,86.0 0 0,1 -40.68145358897372,12.25698825130547" fill="none" id="id30" stroke="none" /><text fill="#e1ed5e" style="font-size:6.75px; font-family:Arial;" text-anchor="middle"><textPath startOffset="21.466115282336833" xlink:href="#id30">June</textPath></text><path d="M 103.06178313531738 120.77559828337769 l 4.451609196737856 30.20620347640284 a51.532467193109895,51.532467193109895 0 0,0 -0.8786811013073953,0.12177719408077531 l -3.9309995042436303 -30.278355235976218" fill="red" stroke="none" /><path d="M 102.70371172650421 120.8252237178851 l 4.072956435800388 31.37177241836065 a52.635060910283414,52.635060910283414 0 0,0 -0.8994895212724271,0.10891565439834834 l -3.5323394914765807 -31.437233601484348" fill="red" stroke="none" /><line stroke="#e1ed5e" stroke-width="0.3" x1="102.19456741930631" x2="102.32365962044197" y1="184.97166512339345" y2="189.96999836594603" /><path d="M 102.22038585953345 185.97133177190398 a86.0,86.0 0 0,1 -42.740103519485714,-10.115201625700543" fill="none" id="id31" stroke="none" /><text fill="#e1ed5e" style="font-size:6.75px; font-family:Arial;" text-anchor="middle"><textPath startOffset="22.20632615414155" xlink:href="#id31">July</textPath></text><path d="M 100.18074693466247 120.99922214144158 l 0.2128534480920667 24.729364558265935 a45.73028058971398,45.73028058971398 0 0,0 -0.7872007655090273,0.0 l 0.21285344809204967 -24.729364558265935" fill="red" stroke="none" /><path d="M 99.81925306533755 120.99922214144158 l -0.044531280447569745 5.173654823567146 a26.173846467412606,26.173846467412606 0 0,0 -0.45048967542301477,-0.007755588301679124 l 0.13358064576325243 -5.172121757986307" fill="red" stroke="none" /><path d="M 96.22490169976321 120.6578951692458 l -5.484625008339225 30.012677671940025 a51.509702268653285,51.509702268653285 0 0,0 -0.8708386890067499,-0.16689830736168745 l 6.00043131191767 -29.91382216622987" fill="red" stroke="none" /><path d="M 94.46302465271185 120.25689768951611 l -8.755457575994177 32.03164132357529 a54.20668732721182,54.20668732721182 0 0,0 -0.8979436667350287,-0.25376784953617504 l 9.30553241083382 -31.876184680700593" fill="red" stroke="none" /><path d="M 94.11515582081647 120.15858648285463 l -7.4292813723780355 25.449069931248683 a47.511306683668934,47.511306683668934 0 0,0 -0.7830882019172489,-0.23593805146719468 l 7.86624454873553 -25.317416510675763" fill="red" stroke="none" /><path d="M 93.42475214034765 119.94407469862007 l -7.925368260838366 24.039266653073394 a46.312009072522685,46.312009072522685 0 0,0 -0.7549524968576339,-0.2561208764014196 l 8.337990490633226 -23.899282789773853" fill="red" stroke="none" /><path d="M 92.40401165467489 119.57807347666478 l -9.217135876369818 23.75645606973976 a46.481852341557484,46.481852341557484 0 0,0 -0.7434416451458841,-0.29583077349049625 l 9.62469859755756 -23.594278451843195" fill="red" stroke="none" /><path d="M 91.7346041902142 119.30500536409082 l -10.259778937778185 23.963170305007683 a47.067155481925504,47.067155481925504 0 0,0 -0.7420458134635712,-0.32529107790613004 l 10.670745425899499 -23.7830146738071" fill="red" stroke="none" /><path d="M 90.10565033884886 118.52300852407294 l -11.100386709346923 20.780805679937675 a44.55972134394581,44.55972134394581 0 0,0 -0.6734399554313544,-0.3672131587404625 l 11.456449476646918 -20.586651869437446" fill="red" stroke="none" /><line stroke="#e1ed5e" stroke-width="0.3" x1="58.666819895761336" x2="56.23545636021788" y1="174.27360380694188" y2="178.64263932499728" /><path d="M 58.180547188652646 175.14741091055294 a86.0,86.0 0 0,1 -31.652253787137756,-30.449443065178592" fill="none" id="id32" stroke="none" /><text fill="#e1ed5e" style="font-size:6.75px; font-family:Arial;" text-anchor="middle"><textPath startOffset="22.20632615414155" xlink:href="#id32">August</textPath></text><path d="M 89.1626897886671 117.98757091392108 l -32.511930633998716 53.962712741763234 a84.0,84.0 0 0,0 -1.2320832002707651,-0.7568461326864875 l 33.435993034201786 -53.395078142248366" fill="red" stroke="none" /><path d="M 87.36589467227662 116.77436683061367 l -21.486446573028438 28.527665976590985 a56.71407443022362,56.71407443022362 0 0,0 -0.7747446973387276,-0.5940411971106522 l 21.97431999886065 -28.153585437652968" fill="red" stroke="none" /><path d="M 85.18274418774928 114.88116024355367 l -18.554145671952078 18.63416670570501 a47.29616874056035,47.29616874056035 0 0,0 -0.5719669262200349,-0.5793994765144611 l 18.872153223227645 -18.312026735209884" fill="red" stroke="none" /><path d="M 84.43433777217949 114.09645910891817 l -17.532710736544775 15.877842930734058 a44.653791279716955,44.653791279716955 0 0,0 -0.5110544554157225,-0.5741750983106538 l 17.803424041608835 -15.57369366268254" fill="red" stroke="none" /><path d="M 83.95833913139862 113.55231037782056 l -15.944028504809923 13.4698286380643 a41.87219031393228,41.87219031393228 0 0,0 -0.46040267793838496,-0.5545846845624034 l 16.173527182641845 -13.193382696388134" fill="red" stroke="none" /><path d="M 83.72743513129214 113.27417163493432 l -14.931316146998663 12.18006226245666 a40.269097503488425,40.269097503488425 0 0,0 -0.43352960205976426,-0.5408948367932037 l 15.138763661113288 -11.921239592085197" fill="red" stroke="none" /><path d="M 83.28015986056508 112.70617746262583 l -21.101818879918643 16.036245157634404 a47.50373405383935,47.50373405383935 0 0,0 -0.4891498704312273,-0.6552961871720167 l 21.374730017044953 -15.67063609095308" fill="red" stroke="none" /><path d="M 83.06392112726016 112.41649034213515 l -19.597238892324537 14.367489031402833 a45.29972249368947,45.29972249368947 0 0,0 -0.4556293709735455,-0.632829345811317 l 19.84164805567369 -14.028026080140377" fill="red" stroke="none" /><path d="M 82.05923443525364 110.91462005526583 l -17.156781531796373 10.437667841707091 a41.08233209822991,41.08233209822991 0 0,0 -0.3623444559765983,-0.6073101502309477 l 17.333906863471203 -10.140795597590031" fill="red" stroke="none" /><line stroke="#e1ed5e" stroke-width="0.3" x1="26.63291911575756" x2="22.317208475507996" y1="142.92168965132927" y2="145.44649492493687" /><path d="M 25.769776987707644 143.4266507060508 a86.0,86.0 0 0,1 -11.730757126820373,-40.83630448921669" fill="none" id="id33" stroke="none" /><text fill="#e1ed5e" style="font-size:6.75px; font-family:Arial;" text-anchor="middle"><textPath startOffset="21.46611528233685" xlink:href="#id33">September</textPath></text><path d="M 80.45479744820244 107.68017299344265 l -22.141970327698854 8.700557698582738 a44.790051581681446,44.790051581681446 0 0,0 -0.27579094699110507,-0.7200031359191857 l 22.28845555428347 -8.318130995830396" fill="red" stroke="none" /><line stroke="#e1ed5e" stroke-width="0.3" x1="15.007084014347285" x2="10.007500721073583" y1="101.09737516637583" y2="101.16192664675087" /><path d="M 14.007167355692545 101.11028546245083 a86.0,86.0 0 0,1 10.666146001902534,-42.60595125391555" fill="none" id="id34" stroke="none" /><text fill="#e1ed5e" style="font-size:6.75px; font-family:Arial;" text-anchor="middle"><textPath startOffset="22.20632615414155" xlink:href="#id34">October</textPath></text><line stroke="#e1ed5e" stroke-width="0.3" x1="26.266209847984243" x2="21.928928074336255" y1="57.711370442889674" y2="55.22380399835377" /><path d="M 25.398753493254645 57.213857153982495 a86.0,86.0 0 0,1 29.58750427330803,-30.492523968695096" fill="none" id="id35" stroke="none" /><text fill="#e1ed5e" style="font-size:6.75px; font-family:Arial;" text-anchor="middle"><textPath startOffset="21.46611528233685" xlink:href="#id35">November</textPath></text><line stroke="#e1ed5e" stroke-width="0.3" x1="56.762969772571076" x2="54.21961505331055" y1="26.818313649435495" y2="22.513508569990535" /><path d="M 56.25429882871897 25.957352633546506 a86.0,86.0 0 0,1 42.265352541879196,-11.944610805530505" fill="none" id="id36" stroke="none" /><text fill="#e1ed5e" style="font-size:6.75px; font-family:Arial;" text-anchor="middle"><textPath startOffset="22.20632615414155" xlink:href="#id36">December</textPath></text></svg>